<svg id="svg" version="1.1" xmlns="http://www.w3.org/2000/svg" xmlns:xlink="http://www.w3.org/1999/xlink" width="400" height="400" viewBox="0, 0, 400,400"><g id="svgg"><path id="path0" d="M180.391 9.479 C 180.047 9.508,178.359 9.638,176.641 9.769 C 88.492 16.478,18.005 86.587,9.812 175.703 C 9.405 180.135,9.214 198.384,9.526 203.125 C 12.255 244.668,28.505 283.240,56.100 313.681 C 59.438 317.363,82.718 340.640,86.328 343.906 C 163.924 414.088,284.975 404.313,350.737 322.555 C 406.644 253.050,403.728 152.317,343.900 86.319 C 340.600 82.679,317.321 59.400,313.681 56.100 C 283.270 28.532,245.312 12.509,203.359 9.532 C 201.412 9.393,181.964 9.349,180.391 9.479 M199.922 13.908 C 232.337 15.460,263.201 25.699,290.391 43.917 C 294.323 46.553,301.015 51.436,298.869 50.104 C 291.399 45.470,276.741 38.898,265.938 35.341 C 246.881 29.065,228.813 26.206,208.047 26.182 C 200.893 26.173,199.113 26.245,192.500 26.805 C 174.281 28.348,154.850 33.064,138.906 39.812 C 133.394 42.145,131.952 42.805,127.344 45.100 C 45.912 85.664,6.850 179.425,35.341 265.938 C 38.898 276.741,45.470 291.399,50.104 298.869 C 50.639 299.731,49.990 298.924,48.124 296.406 C 21.860 260.977,9.802 215.653,14.845 171.326 C 24.160 89.462,89.456 24.166,171.326 14.845 C 179.924 13.866,191.285 13.494,199.922 13.908 M218.359 69.153 C 246.910 71.162,273.897 81.863,296.586 100.171 C 298.978 102.101,303.023 107.157,307.449 113.750 C 349.051 175.709,334.536 259.438,274.507 303.787 C 226.955 338.917,162.794 340.379,113.750 307.449 C 107.170 303.031,102.117 298.987,100.171 296.582 C 50.070 234.645,61.203 144.426,124.844 96.631 C 151.615 76.526,184.756 66.788,218.359 69.153 M318.309 122.266 C 361.844 177.808,357.171 257.072,307.422 306.961 C 260.167 354.348,186.375 361.667,130.787 324.482 C 127.280 322.136,119.155 316.078,121.255 317.375 C 123.347 318.666,129.624 321.830,133.268 323.428 C 197.170 351.463,271.135 330.322,310.648 272.730 C 337.633 233.397,343.250 182.505,325.498 138.190 C 323.168 132.373,319.435 124.591,317.375 121.255 C 317.021 120.683,317.330 121.017,318.309 122.266 " stroke="none" fill="#000000" fill-rule="evenodd"></path></g></svg>